<?xml version="1.0" encoding="UTF-8"?>
<!DOCTYPE svg PUBLIC "-//W3C//DTD SVG 1.1//EN" "http://www.w3.org/Graphics/SVG/1.1/DTD/svg11.dtd">
<svg xmlns="http://www.w3.org/2000/svg" version="1.1" width="512px" height="512px" style="shape-rendering:geometricPrecision; text-rendering:geometricPrecision; image-rendering:optimizeQuality; fill-rule:evenodd; clip-rule:evenodd" xmlns:xlink="http://www.w3.org/1999/xlink">
<g><path style="opacity:1" fill="#41416b" d="M 94.5,-0.5 C 114.833,-0.5 135.167,-0.5 155.5,-0.5C 147.36,3.13786 142.36,9.30452 140.5,18C 140.939,21.9188 141.606,25.7521 142.5,29.5C 128.163,29.3334 113.829,29.5001 99.5,30C 89.0978,32.7353 82.2644,39.2353 79,49.5C 78.5,178.5 78.3333,307.5 78.5,436.5C 66.8074,424.771 56.8074,411.771 48.5,397.5C 48.8327,309.998 48.4994,222.665 47.5,135.5C 47.3334,106.831 47.5,78.1647 48,49.5C 52.8315,22.7907 68.3315,6.12406 94.5,-0.5 Z"/></g>
<g><path style="opacity:0.998" fill="#515181" d="M 155.5,-0.5 C 215.833,-0.5 276.167,-0.5 336.5,-0.5C 365.327,7.43614 380.661,26.4361 382.5,56.5C 382.5,106.833 382.5,157.167 382.5,207.5C 377.062,203.448 371.062,200.448 364.5,198.5C 360.499,196.411 356.165,195.078 351.5,194.5C 351.667,145.832 351.5,97.1655 351,48.5C 347.09,37.92 339.59,31.7533 328.5,30C 314.5,29.3333 300.5,29.3333 286.5,30C 284.051,30.7246 281.717,31.7246 279.5,33C 275.167,38 270.833,43 266.5,48C 263.446,50.1939 260.112,51.8605 256.5,53C 228.833,53.6667 201.167,53.6667 173.5,53C 169.172,51.1713 165.172,48.838 161.5,46C 158.743,41.8211 155.743,37.8211 152.5,34C 149.691,32.2589 146.691,31.0922 143.5,30.5C 143.5,29.8333 143.167,29.5 142.5,29.5C 141.606,25.7521 140.939,21.9188 140.5,18C 142.36,9.30452 147.36,3.13786 155.5,-0.5 Z"/></g>
<g><path style="opacity:1" fill="#2ebbf5" d="M 142.5,29.5 C 143.167,29.5 143.5,29.8333 143.5,30.5C 133.831,30.5888 126.664,34.9221 122,43.5C 120.25,46.2464 119.25,49.2464 119,52.5C 118.829,60.0115 118.329,67.3448 117.5,74.5C 109.567,69.4091 103.4,71.0757 99,79.5C 98.1608,84.9212 98.4941,90.2545 100,95.5C 105.16,102.277 111.327,103.277 118.5,98.5C 118.5,138.167 118.5,177.833 118.5,217.5C 112.24,220.015 110.407,224.349 113,230.5C 114.451,232.464 116.284,233.797 118.5,234.5C 118.5,265.5 118.5,296.5 118.5,327.5C 110.577,341.824 110.577,356.157 118.5,370.5C 118.5,403.833 118.5,437.167 118.5,470.5C 104.012,460.58 90.6785,449.247 78.5,436.5C 78.3333,307.5 78.5,178.5 79,49.5C 82.2644,39.2353 89.0978,32.7353 99.5,30C 113.829,29.5001 128.163,29.3334 142.5,29.5 Z"/></g>
<g><path style="opacity:1" fill="#5ccaf6" d="M 351.5,194.5 C 318.721,189.091 291.721,199.091 270.5,224.5C 268.611,199.445 256.278,181.611 233.5,171C 220.173,165.807 206.84,165.307 193.5,169.5C 171.194,177.063 157.361,192.397 152,215.5C 148.752,240.653 157.252,260.653 177.5,275.5C 170.33,279.487 163.83,284.487 158,290.5C 153.008,296.827 148.841,303.66 145.5,311C 134.202,312.971 125.202,318.471 118.5,327.5C 118.5,296.5 118.5,265.5 118.5,234.5C 124.176,234.666 129.843,234.499 135.5,234C 141.632,229.353 141.965,224.353 136.5,219C 130.593,217.639 124.593,217.139 118.5,217.5C 118.5,177.833 118.5,138.167 118.5,98.5C 121.336,92.5265 122.17,86.1932 121,79.5C 120.003,77.6769 118.836,76.0103 117.5,74.5C 118.329,67.3448 118.829,60.0115 119,52.5C 119.25,49.2464 120.25,46.2464 122,43.5C 126.664,34.9221 133.831,30.5888 143.5,30.5C 146.691,31.0922 149.691,32.2589 152.5,34C 155.743,37.8211 158.743,41.8211 161.5,46C 165.172,48.838 169.172,51.1713 173.5,53C 201.167,53.6667 228.833,53.6667 256.5,53C 260.112,51.8605 263.446,50.1939 266.5,48C 270.833,43 275.167,38 279.5,33C 281.717,31.7246 284.051,30.7246 286.5,30C 300.5,29.3333 314.5,29.3333 328.5,30C 339.59,31.7533 347.09,37.92 351,48.5C 351.5,97.1655 351.667,145.832 351.5,194.5 Z"/></g>
<g><path style="opacity:0.994" fill="#85d249" d="M 382.5,56.5 C 448.584,97.5878 487.417,156.921 499,234.5C 508.126,325.51 477.959,400.344 408.5,459C 400.322,465.587 391.656,471.42 382.5,476.5C 382.5,436.5 382.5,396.5 382.5,356.5C 393.172,356.667 403.839,356.5 414.5,356C 444.628,350.54 460.628,332.54 462.5,302C 459.862,273.024 444.196,255.69 415.5,250C 410.558,239.948 404.724,230.448 398,221.5C 393.235,216.228 388.069,211.561 382.5,207.5C 382.5,157.167 382.5,106.833 382.5,56.5 Z"/></g>
<g><path style="opacity:1" fill="#b7e8f9" d="M 137.5,59.5 C 144.648,57.7054 149.815,60.0388 153,66.5C 153.667,75.1667 153.667,83.8333 153,92.5C 151.578,98.4725 147.745,101.473 141.5,101.5C 137.08,100.918 133.913,98.5851 132,94.5C 131.333,84.8333 131.333,75.1667 132,65.5C 133.36,62.9774 135.193,60.9774 137.5,59.5 Z"/></g>
<g><path style="opacity:1" fill="#b7e8f9" d="M 290.5,65.5 C 300.506,65.3335 310.506,65.5002 320.5,66C 328.518,69.8723 330.351,75.7056 326,83.5C 324.786,85.0488 323.286,86.2155 321.5,87C 310.833,87.6667 300.167,87.6667 289.5,87C 285.198,85.0649 283.198,81.7316 283.5,77C 283.586,71.7575 285.919,67.9242 290.5,65.5 Z"/></g>
<g><path style="opacity:1" fill="#b5e8f9" d="M 117.5,74.5 C 118.836,76.0103 120.003,77.6769 121,79.5C 122.17,86.1932 121.336,92.5265 118.5,98.5C 111.327,103.277 105.16,102.277 100,95.5C 98.4941,90.2545 98.1608,84.9212 99,79.5C 103.4,71.0757 109.567,69.4091 117.5,74.5 Z"/></g>
<g><path style="opacity:1" fill="#fbe30c" d="M 206.5,127.5 C 209.187,127.336 211.854,127.503 214.5,128C 216.667,128.833 218.167,130.333 219,132.5C 219.667,138.167 219.667,143.833 219,149.5C 216.686,154.406 212.853,156.24 207.5,155C 205.274,153.773 203.774,151.939 203,149.5C 202.333,143.833 202.333,138.167 203,132.5C 203.997,130.677 205.164,129.01 206.5,127.5 Z"/></g>
<g><path style="opacity:0.988" fill="#84cf4a" d="M 47.5,135.5 C 48.4994,222.665 48.8327,309.998 48.5,397.5C 22.6579,357.822 9.99128,314.156 10.5,266.5C 10.2367,219.213 22.57,175.546 47.5,135.5 Z"/></g>
<g><path style="opacity:1" fill="#f9ca11" d="M 161.5,139.5 C 164.187,139.336 166.854,139.503 169.5,140C 175.876,145.904 179.042,153.071 179,161.5C 173.208,168.408 167.874,168.074 163,160.5C 160.397,156.428 158.564,152.095 157.5,147.5C 157.667,146.167 157.833,144.833 158,143.5C 159.376,142.295 160.542,140.962 161.5,139.5 Z"/></g>
<g><path style="opacity:1" fill="#fbe310" d="M 252.5,139.5 C 261.711,138.542 265.545,142.542 264,151.5C 261.667,155.5 259.333,159.5 257,163.5C 249.316,168.239 244.483,166.239 242.5,157.5C 244.263,150.643 247.596,144.643 252.5,139.5 Z"/></g>
<g><path style="opacity:1" fill="#fee303" d="M 270.5,224.5 C 265.12,232.758 260.12,241.258 255.5,250C 237.199,247.735 221.199,252.568 207.5,264.5C 183.175,247.716 174.008,224.716 180,195.5C 183.257,185.816 188.423,177.316 195.5,170C 194.906,169.536 194.239,169.369 193.5,169.5C 206.84,165.307 220.173,165.807 233.5,171C 256.278,181.611 268.611,199.445 270.5,224.5 Z"/></g>
<g><path style="opacity:1" fill="#fcca04" d="M 193.5,169.5 C 194.239,169.369 194.906,169.536 195.5,170C 188.423,177.316 183.257,185.816 180,195.5C 174.008,224.716 183.175,247.716 207.5,264.5C 205.833,266.5 204.167,268.5 202.5,270.5C 194.015,271.264 185.682,272.93 177.5,275.5C 157.252,260.653 148.752,240.653 152,215.5C 157.361,192.397 171.194,177.063 193.5,169.5 Z"/></g>
<g><path style="opacity:1" fill="#f9ca0f" d="M 129.5,172.5 C 131.527,172.338 133.527,172.505 135.5,173C 140.761,175.545 145.594,178.712 150,182.5C 151.729,190.58 148.562,194.747 140.5,195C 135.256,192.797 130.422,189.964 126,186.5C 123.133,180.63 124.3,175.963 129.5,172.5 Z"/></g>
<g><path style="opacity:1" fill="#fae315" d="M 286.5,172.5 C 294.498,172 298.331,175.667 298,183.5C 296.093,187.039 293.26,189.539 289.5,191C 285.797,193.533 281.797,194.866 277.5,195C 271.908,192.598 270.075,188.431 272,182.5C 276.639,178.774 281.472,175.44 286.5,172.5 Z"/></g>
<g><path style="opacity:1" fill="#fff340" d="M 236.5,190.5 C 241.42,189.784 244.42,191.784 245.5,196.5C 244.655,201.844 241.655,203.677 236.5,202C 232.555,198.169 232.555,194.336 236.5,190.5 Z"/></g>
<g><path style="opacity:1" fill="#8adaf8" d="M 351.5,194.5 C 356.165,195.078 360.499,196.411 364.5,198.5C 353.045,203.448 344.212,211.448 338,222.5C 332.661,232.524 329.494,243.191 328.5,254.5C 305.557,259.943 292.057,274.276 288,297.5C 282.358,300.642 277.858,304.975 274.5,310.5C 273.675,311.386 272.675,311.719 271.5,311.5C 266.489,311.666 261.489,311.499 256.5,311C 251.243,296.581 241.909,285.748 228.5,278.5C 220.464,273.66 211.797,270.993 202.5,270.5C 204.167,268.5 205.833,266.5 207.5,264.5C 221.199,252.568 237.199,247.735 255.5,250C 260.12,241.258 265.12,232.758 270.5,224.5C 291.721,199.091 318.721,189.091 351.5,194.5 Z"/></g>
<g><path style="opacity:1" fill="#fff341" d="M 209.5,198.5 C 219.51,196.754 226.677,200.421 231,209.5C 230.861,226.644 222.694,232.477 206.5,227C 196.441,216.308 197.441,206.808 209.5,198.5 Z"/></g>
<g><path style="opacity:1" fill="#b7e8f9" d="M 364.5,198.5 C 371.062,200.448 377.062,203.448 382.5,207.5C 388.069,211.561 393.235,216.228 398,221.5C 404.724,230.448 410.558,239.948 415.5,250C 444.196,255.69 459.862,273.024 462.5,302C 460.628,332.54 444.628,350.54 414.5,356C 403.839,356.5 393.172,356.667 382.5,356.5C 372.167,356.5 361.833,356.5 351.5,356.5C 342.167,356.5 332.833,356.5 323.5,356.5C 320.543,345.712 313.543,339.212 302.5,337C 298.598,330.428 293.931,324.428 288.5,319C 283.128,315.607 277.462,313.107 271.5,311.5C 272.675,311.719 273.675,311.386 274.5,310.5C 277.858,304.975 282.358,300.642 288,297.5C 292.057,274.276 305.557,259.943 328.5,254.5C 329.494,243.191 332.661,232.524 338,222.5C 344.212,211.448 353.045,203.448 364.5,198.5 Z"/></g>
<g><path style="opacity:1" fill="#f7c914" d="M 118.5,217.5 C 124.593,217.139 130.593,217.639 136.5,219C 141.965,224.353 141.632,229.353 135.5,234C 129.843,234.499 124.176,234.666 118.5,234.5C 116.284,233.797 114.451,232.464 113,230.5C 110.407,224.349 112.24,220.015 118.5,217.5 Z"/></g>
<g><path style="opacity:1" fill="#f8ca13" d="M 139.5,257.5 C 149.73,257.79 152.73,262.623 148.5,272C 143.833,274.667 139.167,277.333 134.5,280C 127.045,280.545 123.545,277.045 124,269.5C 125.122,267.376 126.622,265.543 128.5,264C 132.23,261.807 135.897,259.64 139.5,257.5 Z"/></g>
<g><path style="opacity:1" fill="#b7e8f9" d="M 202.5,270.5 C 211.797,270.993 220.464,273.66 228.5,278.5C 221.126,280.952 214.959,285.285 210,291.5C 205.523,297.621 201.69,304.121 198.5,311C 173.665,316.865 162.832,332.365 166,357.5C 169.93,371.885 179.096,381.052 193.5,385C 229.832,385.5 266.165,385.667 302.5,385.5C 250.335,386.665 198.002,386.832 145.5,386C 134.702,383.935 125.702,378.768 118.5,370.5C 110.577,356.157 110.577,341.824 118.5,327.5C 125.202,318.471 134.202,312.971 145.5,311C 148.841,303.66 153.008,296.827 158,290.5C 163.83,284.487 170.33,279.487 177.5,275.5C 185.682,272.93 194.015,271.264 202.5,270.5 Z"/></g>
<g><path style="opacity:1" fill="#e5f7fb" d="M 228.5,278.5 C 241.909,285.748 251.243,296.581 256.5,311C 261.489,311.499 266.489,311.666 271.5,311.5C 277.462,313.107 283.128,315.607 288.5,319C 293.931,324.428 298.598,330.428 302.5,337C 313.543,339.212 320.543,345.712 323.5,356.5C 324.875,367.244 321.208,375.744 312.5,382C 309.368,383.782 306.035,384.948 302.5,385.5C 266.165,385.667 229.832,385.5 193.5,385C 179.096,381.052 169.93,371.885 166,357.5C 162.832,332.365 173.665,316.865 198.5,311C 201.69,304.121 205.523,297.621 210,291.5C 214.959,285.285 221.126,280.952 228.5,278.5 Z"/></g>
<g><path style="opacity:0.997" fill="#5ccbf7" d="M 323.5,356.5 C 332.833,356.5 342.167,356.5 351.5,356.5C 351.5,401.833 351.5,447.167 351.5,492.5C 327.703,502.615 303.036,508.949 277.5,511.5C 262.833,511.5 248.167,511.5 233.5,511.5C 191.863,507.176 153.53,493.509 118.5,470.5C 118.5,437.167 118.5,403.833 118.5,370.5C 125.702,378.768 134.702,383.935 145.5,386C 198.002,386.832 250.335,386.665 302.5,385.5C 306.035,384.948 309.368,383.782 312.5,382C 321.208,375.744 324.875,367.244 323.5,356.5 Z"/></g>
<g><path style="opacity:0.997" fill="#515381" d="M 351.5,356.5 C 361.833,356.5 372.167,356.5 382.5,356.5C 382.5,396.5 382.5,436.5 382.5,476.5C 372.64,482.598 362.307,487.931 351.5,492.5C 351.5,447.167 351.5,401.833 351.5,356.5 Z"/></g>
<g><path style="opacity:1" fill="#b6e8f9" d="M 185.5,415.5 C 206.836,415.333 228.169,415.5 249.5,416C 255.851,418.201 257.685,422.368 255,428.5C 253.786,430.049 252.286,431.215 250.5,432C 228.833,432.667 207.167,432.667 185.5,432C 180.845,429.103 179.345,424.937 181,419.5C 182.397,417.93 183.897,416.596 185.5,415.5 Z"/></g>
<g><path style="opacity:1" fill="#e2f6fb" d="M 200.5,445.5 C 211.838,445.333 223.172,445.5 234.5,446C 242.957,450.296 243.624,455.629 236.5,462C 224.167,462.667 211.833,462.667 199.5,462C 192.671,456.003 193.004,450.503 200.5,445.5 Z"/></g>
</svg>
